<svg width="30" height="30" viewBox="0 0 30 30" fill="none" xmlns="http://www.w3.org/2000/svg">
<circle cx="15" cy="15" r="14.5" stroke="#474747"/>
<path d="M15.0001 11.2447C12.9218 11.2447 11.2446 12.9219 11.2446 15.0002C11.2446 17.0784 12.9218 18.7557 15.0001 18.7557C17.0783 18.7557 18.7556 17.0784 18.7556 15.0002C18.7556 12.9219 17.0783 11.2447 15.0001 11.2447ZM15.0001 17.441C13.6561 17.441 12.5593 16.3442 12.5593 15.0002C12.5593 13.6562 13.6561 12.5594 15.0001 12.5594C16.3441 12.5594 17.4409 13.6562 17.4409 15.0002C17.4409 16.3442 16.3441 17.441 15.0001 17.441ZM18.9094 10.2156C18.4241 10.2156 18.0323 10.6075 18.0323 11.0927C18.0323 11.5779 18.4241 11.9698 18.9094 11.9698C19.3946 11.9698 19.7864 11.5798 19.7864 11.0927C19.7866 10.9775 19.764 10.8634 19.72 10.7569C19.6759 10.6504 19.6113 10.5537 19.5299 10.4722C19.4484 10.3907 19.3517 10.3261 19.2452 10.2821C19.1387 10.2381 19.0246 10.2155 18.9094 10.2156ZM22.3206 15.0002C22.3206 13.9894 22.3298 12.9878 22.273 11.9789C22.2162 10.8071 21.9489 9.76702 21.092 8.91009C20.2332 8.05133 19.195 7.78582 18.0231 7.72906C17.0124 7.6723 16.0108 7.68145 15.0019 7.68145C13.9911 7.68145 12.9896 7.6723 11.9806 7.72906C10.8088 7.78582 9.76873 8.05316 8.9118 8.91009C8.05303 9.76886 7.78753 10.8071 7.73077 11.9789C7.67401 12.9897 7.68316 13.9913 7.68316 15.0002C7.68316 16.0091 7.67401 17.0125 7.73077 18.0214C7.78753 19.1933 8.05487 20.2333 8.9118 21.0903C9.77056 21.949 10.8088 22.2145 11.9806 22.2713C12.9914 22.3281 13.993 22.3189 15.0019 22.3189C16.0126 22.3189 17.0142 22.3281 18.0231 22.2713C19.195 22.2145 20.235 21.9472 21.092 21.0903C21.9507 20.2315 22.2162 19.1933 22.273 18.0214C22.3316 17.0125 22.3206 16.0109 22.3206 15.0002ZM20.7093 19.3178C20.5756 19.6511 20.4145 19.9001 20.1563 20.1564C19.8981 20.4146 19.6509 20.5757 19.3177 20.7094C18.3545 21.0921 16.0676 21.006 15.0001 21.006C13.9326 21.006 11.6437 21.0921 10.6806 20.7112C10.3473 20.5776 10.0983 20.4164 9.84198 20.1583C9.5838 19.9001 9.42266 19.6529 9.289 19.3196C8.90814 18.3547 8.9942 16.0677 8.9942 15.0002C8.9942 13.9327 8.90814 11.6439 9.289 10.6807C9.42266 10.3475 9.5838 10.0984 9.84198 9.8421C10.1002 9.58575 10.3473 9.42279 10.6806 9.28912C11.6437 8.90826 13.9326 8.99432 15.0001 8.99432C16.0676 8.99432 18.3564 8.90826 19.3195 9.28912C19.6528 9.42279 19.9018 9.58392 20.1581 9.8421C20.4163 10.1003 20.5775 10.3475 20.7111 10.6807C21.092 11.6439 21.0059 13.9327 21.0059 15.0002C21.0059 16.0677 21.092 18.3547 20.7093 19.3178Z" fill="#474747"/>
</svg>
