<svg width="30" height="30" viewBox="0 0 30 30" fill="none" xmlns="http://www.w3.org/2000/svg">
<circle cx="15" cy="15" r="14.5" stroke="#474747"/>
<g clip-path="url(#clip0_129_323)">
<path d="M20.7521 13.3307C20.8183 13.3284 20.8843 13.3394 20.9461 13.3632C21.0079 13.3869 21.0643 13.4229 21.1119 13.4689C21.1596 13.5149 21.1974 13.5701 21.2233 13.631C21.2492 13.692 21.2625 13.7575 21.2625 13.8237C21.2625 13.8899 21.2492 13.9555 21.2233 14.0165C21.1974 14.0774 21.1596 14.1325 21.1119 14.1785C21.0643 14.2246 21.0079 14.2605 20.9461 14.2843C20.8843 14.308 20.8183 14.3191 20.7521 14.3168H19.3816V15.1957H20.7521C20.8187 15.1925 20.8853 15.2028 20.9477 15.226C21.0102 15.2492 21.0673 15.2849 21.1156 15.3309C21.1639 15.3769 21.2023 15.4322 21.2285 15.4934C21.2548 15.5547 21.2683 15.6206 21.2683 15.6873C21.2683 15.754 21.2548 15.8199 21.2285 15.8812C21.2023 15.9425 21.1639 15.9978 21.1156 16.0437C21.0673 16.0897 21.0102 16.1254 20.9477 16.1486C20.8853 16.1719 20.8187 16.1822 20.7521 16.1789H18.8906C18.7605 16.1784 18.6358 16.1265 18.5439 16.0343C18.452 15.9422 18.4003 15.8174 18.4002 15.6873V11.9607C18.4002 11.6895 18.6199 11.4668 18.8906 11.4668H20.7557C20.8822 11.4733 21.0013 11.5283 21.0885 11.6203C21.1756 11.7123 21.2239 11.8343 21.2236 11.961C21.2232 12.0877 21.1741 12.2094 21.0864 12.3008C20.9988 12.3923 20.8793 12.4466 20.7527 12.4523H19.3822V13.3312L20.7521 13.3307ZM17.7439 15.6867C17.7429 15.8172 17.6903 15.942 17.5977 16.034C17.5051 16.1259 17.3799 16.1776 17.2494 16.1777C17.1721 16.1785 17.0958 16.1612 17.0263 16.1274C16.9568 16.0935 16.8962 16.044 16.8492 15.9826L14.942 13.3887V15.6861C14.942 15.8165 14.8902 15.9416 14.798 16.0337C14.7058 16.1259 14.5808 16.1777 14.4504 16.1777C14.32 16.1777 14.195 16.1259 14.1028 16.0337C14.0106 15.9416 13.9588 15.8165 13.9588 15.6861V11.9596C13.9588 11.7492 14.0965 11.5605 14.2945 11.4932C14.3434 11.4759 14.395 11.4674 14.4469 11.468C14.5992 11.468 14.7398 11.5506 14.8342 11.6666L16.7566 14.2664V11.9596C16.7566 11.6883 16.9764 11.4656 17.2482 11.4656C17.5201 11.4656 17.7428 11.6883 17.7428 11.9596L17.7439 15.6867ZM13.258 15.6867C13.2574 15.8174 13.205 15.9425 13.1123 16.0347C13.0196 16.1268 12.8942 16.1785 12.7635 16.1783C12.6338 16.1772 12.5097 16.125 12.4183 16.0329C12.3269 15.9409 12.2755 15.8164 12.2754 15.6867V11.9602C12.2754 11.6889 12.4951 11.4662 12.767 11.4662C13.0383 11.4662 13.2586 11.6889 13.2586 11.9602L13.258 15.6867ZM11.332 16.1783H9.46699C9.33643 16.178 9.21127 16.1262 9.11867 16.0342C9.02608 15.9421 8.97354 15.8173 8.97246 15.6867V11.9602C8.97246 11.6889 9.19512 11.4662 9.46699 11.4662C9.73887 11.4662 9.95859 11.6889 9.95859 11.9602V15.1951H11.332C11.4624 15.1951 11.5875 15.2469 11.6796 15.3391C11.7718 15.4313 11.8236 15.5563 11.8236 15.6867C11.8236 15.8171 11.7718 15.9421 11.6796 16.0343C11.5875 16.1265 11.4624 16.1783 11.332 16.1783ZM24.375 13.6811C24.375 9.48516 20.1662 6.07031 15 6.07031C9.83379 6.07031 5.625 9.48516 5.625 13.6811C5.625 17.441 8.96074 20.5904 13.4648 21.1887C13.7701 21.2525 14.185 21.3902 14.2922 21.6498C14.3865 21.8842 14.3531 22.2475 14.3227 22.4953L14.1943 23.2916C14.1574 23.5266 14.0051 24.2168 15.0123 23.7955C16.0225 23.3742 20.417 20.6098 22.3852 18.3445C23.7311 16.8709 24.375 15.3568 24.375 13.6811Z" fill="#474747"/>
</g>
<defs>
<clipPath id="clip0_129_323">
<rect width="18.75" height="18.75" fill="white" transform="translate(5.625 5.625)"/>
</clipPath>
</defs>
</svg>
