<svg width="30" height="30" viewBox="0 0 30 30" fill="none" xmlns="http://www.w3.org/2000/svg">
<circle cx="15" cy="15" r="14.5" stroke="#474747"/>
<g clip-path="url(#clip0_129_318)">
<path d="M24.096 9.48205C23.4437 9.77111 22.7429 9.96642 22.0062 10.0547C22.7663 9.59985 23.335 8.88397 23.6062 8.04064C22.892 8.46485 22.1103 8.76345 21.2952 8.92345C20.7471 8.33819 20.021 7.95027 19.2298 7.81992C18.4386 7.68956 17.6265 7.82407 16.9196 8.20256C16.2127 8.58104 15.6505 9.18233 15.3203 9.91306C14.9902 10.6438 14.9105 11.4631 15.0937 12.2438C13.6465 12.1711 12.2309 11.795 10.9385 11.1398C9.64617 10.4846 8.50603 9.56498 7.59209 8.44064C7.27959 8.9797 7.0999 9.6047 7.0999 10.2703C7.09955 10.8695 7.24712 11.4596 7.5295 11.9881C7.81187 12.5166 8.22034 12.9672 8.71865 13.3C8.14074 13.2816 7.57558 13.1255 7.07021 12.8445V12.8914C7.07016 13.7318 7.36087 14.5464 7.89301 15.1969C8.42516 15.8474 9.16597 16.2937 9.98975 16.4602C9.45364 16.6053 8.89157 16.6266 8.346 16.5227C8.57842 17.2458 9.03115 17.8782 9.64081 18.3312C10.2505 18.7843 10.9866 19.0353 11.746 19.0492C10.4568 20.0613 8.86466 20.6102 7.22568 20.6078C6.93536 20.6079 6.64527 20.5909 6.35693 20.557C8.02059 21.6267 9.9572 22.1944 11.9351 22.1922C18.6304 22.1922 22.2905 16.6469 22.2905 11.8375C22.2905 11.6813 22.2866 11.5235 22.2796 11.3672C22.9915 10.8523 23.6061 10.2148 24.0944 9.48439L24.096 9.48205Z" fill="#474747"/>
</g>
<defs>
<clipPath id="clip0_129_318">
<rect width="18.75" height="18.75" fill="white" transform="translate(5.625 5.625)"/>
</clipPath>
</defs>
</svg>
